<?xml version="1.0"?>
<svg xmlns="http://www.w3.org/2000/svg" height="512px" viewBox="0 0 512 512" width="512px" class=""><g><path d="m492 0h-320c-11.046875 0-20 8.953125-20 20v295.402344h-132c-11.046875 0-20 8.953125-20 20v80.597656c0 52.933594 43.066406 96 96 96h320c52.933594 0 96-43.066406 96-96v-396c0-11.046875-8.953125-20-20-20zm-340 416c0 30.878906-25.121094 56-56 56s-56-25.121094-56-56v-60.597656h112zm320 0c0 30.878906-25.121094 56-56 56h-242.074219c11.367188-15.773438 18.074219-35.117188 18.074219-56v-376h280zm0 0" data-original="#000000" class="active-path" data-old_color="#000000" fill="#FFFFFF"/><path d="m296 216h80c11.046875 0 20-8.953125 20-20v-80c0-11.046875-8.953125-20-20-20h-80c-11.046875 0-20 8.953125-20 20v80c0 11.046875 8.953125 20 20 20zm20-80h40v40h-40zm0 0" data-original="#000000" class="active-path" data-old_color="#000000" fill="#FFFFFF"/><path d="m256 306h160c11.046875 0 20-8.953125 20-20s-8.953125-20-20-20h-160c-11.046875 0-20 8.953125-20 20s8.953125 20 20 20zm0 0" data-original="#000000" class="active-path" data-old_color="#000000" fill="#FFFFFF"/><path d="m256 404.808594h160c11.046875 0 20-8.957032 20-20 0-11.046875-8.953125-20-20-20h-160c-11.046875 0-20 8.953125-20 20 0 11.042968 8.953125 20 20 20zm0 0" data-original="#000000" class="active-path" data-old_color="#000000" fill="#FFFFFF"/></g> </svg>
